HIERARCHY
ROOT hip
{
  OFFSET 0 0 0
  CHANNELS 6 Xposition Yposition Zposition Zrotation Yrotation Xrotation
  JOINT abdomen
  {
    OFFSET 0 20.6881 -0.73152
    CHANNELS 3 Zrotation Xrotation Yrotation
    JOINT chest
    {
      OFFSET 0 11.7043 -0.48768
      CHANNELS 3 Zrotation Xrotation Yrotation
      JOINT neck
      {
        OFFSET 0 22.1894 -2.19456
        CHANNELS 3 Zrotation Xrotation Yrotation
        JOINT head
        {
          OFFSET -0.24384 7.07133 1.2192
          CHANNELS 3 Zrotation Xrotation Yrotation
          JOINT leftEye
          {
            OFFSET 4.14528 8.04674 8.04672
            CHANNELS 3 Zrotation Xrotation Yrotation
            End Site
            {
              OFFSET 1 0 0
            }
          }
          JOINT rightEye
          {
            OFFSET -3.6576 8.04674 8.04672
            CHANNELS 3 Zrotation Xrotation Yrotation
            End Site
            {
              OFFSET 1 0 0
            }
          }
        }
      }
      JOINT rCollar
      {
        OFFSET -2.68224 19.2634 -4.8768
        CHANNELS 3 Zrotation Xrotation Yrotation
        JOINT rShldr
        {
          OFFSET -8.77824 -1.95073 1.46304
          CHANNELS 3 Zrotation Xrotation Yrotation
          JOINT rForeArm
          {
            OFFSET -28.1742 -1.7115 0.48768
            CHANNELS 3 Zrotation Xrotation Yrotation
            JOINT rHand
            {
              OFFSET -22.5879 0.773209 7.07136
              CHANNELS 3 Zrotation Xrotation Yrotation
              JOINT rThumb1
              {
                OFFSET -1.2192 -0.487915 3.41376
                CHANNELS 3 Zrotation Xrotation Yrotation
                JOINT rThumb2
                {
                  OFFSET -3.37035 -0.52449 3.41376
                  CHANNELS 3 Zrotation Xrotation Yrotation
                  End Site
                  {
                    OFFSET -1.78271 -1.18214 1.43049
                  }
                }
              }
              JOINT rIndex1
              {
                OFFSET -7.75947 0.938293 5.60832
                CHANNELS 3 Zrotation Xrotation Yrotation
                JOINT rIndex2
                {
                  OFFSET -2.54057 -0.884171 1.56538
                  CHANNELS 3 Zrotation Xrotation Yrotation
                  End Site
                  {
                    OFFSET -1.62519 -0.234802 1.16502
                  }
                }
              }
              JOINT rMid1
              {
                OFFSET -8.24714 1.18213 3.41376
                CHANNELS 3 Zrotation Xrotation Yrotation
                JOINT rMid2
                {
                  OFFSET -3.10165 -0.590103 1.0647
                  CHANNELS 3 Zrotation Xrotation Yrotation
                  End Site
                  {
                    OFFSET -2.48547 -0.328903 0.83742
                  }
                }
              }
              JOINT rRing1
              {
                OFFSET -8.82822 0.546677 1.51678
                CHANNELS 3 Zrotation Xrotation Yrotation
                JOINT rRing2
                {
                  OFFSET -2.60934 -0.819778 -0.0198488
                  CHANNELS 3 Zrotation Xrotation Yrotation
                  End Site
                  {
                    OFFSET -2.33842 -0.294052 0.168128
                  }
                }
              }
              JOINT rPinky1
              {
                OFFSET -8.27202 -0.0477905 -0.4584
                CHANNELS 3 Zrotation Xrotation Yrotation
                JOINT rPinky2
                {
                  OFFSET -1.82734 -0.647385 -0.700984
                  CHANNELS 3 Zrotation Xrotation Yrotation
                  End Site
                  {
                    OFFSET -1.69225 -0.51767 -0.607171
                  }
                }
              }
            }
          }
        }
      }
      JOINT lCollar
      {
        OFFSET 2.68224 19.2634 -4.8768
        CHANNELS 3 Zrotation Xrotation Yrotation
        JOINT lShldr
        {
          OFFSET 8.77824 -1.95073 1.46304
          CHANNELS 3 Zrotation Xrotation Yrotation
          JOINT lForeArm
          {
            OFFSET 28.1742 -1.7115 0.48768
            CHANNELS 3 Zrotation Xrotation Yrotation
            JOINT lHand
            {
              OFFSET 22.5879 0.773209 7.07136
              CHANNELS 3 Zrotation Xrotation Yrotation
              JOINT lThumb1
              {
                OFFSET 1.2192 -0.487915 3.41376
                CHANNELS 3 Zrotation Xrotation Yrotation
                JOINT lThumb2
                {
                  OFFSET 3.37035 -0.52449 3.41376
                  CHANNELS 3 Zrotation Xrotation Yrotation
                  End Site
                  {
                    OFFSET 1.78271 -1.18214 1.43049
                  }
                }
              }
              JOINT lIndex1
              {
                OFFSET 7.75947 0.938293 5.60832
                CHANNELS 3 Zrotation Xrotation Yrotation
                JOINT lIndex2
                {
                  OFFSET 2.54057 -0.884171 1.56538
                  CHANNELS 3 Zrotation Xrotation Yrotation
                  End Site
                  {
                    OFFSET 1.62519 -0.234802 1.16502
                  }
                }
              }
              JOINT lMid1
              {
                OFFSET 8.24714 1.18213 3.41376
                CHANNELS 3 Zrotation Xrotation Yrotation
                JOINT lMid2
                {
                  OFFSET 3.10165 -0.590103 1.0647
                  CHANNELS 3 Zrotation Xrotation Yrotation
                  End Site
                  {
                    OFFSET 2.48547 -0.328903 0.83742
                  }
                }
              }
              JOINT lRing1
              {
                OFFSET 8.82822 0.546677 1.51678
                CHANNELS 3 Zrotation Xrotation Yrotation
                JOINT lRing2
                {
                  OFFSET 2.60934 -0.819778 -0.0198488
                  CHANNELS 3 Zrotation Xrotation Yrotation
                  End Site
                  {
                    OFFSET 2.33842 -0.294052 0.168128
                  }
                }
              }
              JOINT lPinky1
              {
                OFFSET 8.27202 -0.0477905 -0.4584
                CHANNELS 3 Zrotation Xrotation Yrotation
                JOINT lPinky2
                {
                  OFFSET 1.82734 -0.647385 -0.700984
                  CHANNELS 3 Zrotation Xrotation Yrotation
                  End Site
                  {
                    OFFSET 1.69225 -0.51767 -0.607171
                  }
                }
              }
            }
          }
        }
      }
    }
  }
  JOINT rButtock
  {
    OFFSET -8.77824 4.35084 1.2192
    CHANNELS 3 Zrotation Xrotation Yrotation
    JOINT rThigh
    {
      OFFSET 0 -1.70687 -2.19456
      CHANNELS 3 Zrotation Xrotation Yrotation
      JOINT rShin
      {
        OFFSET 0 -36.8199 0.73152
        CHANNELS 3 Zrotation Xrotation Yrotation
        JOINT rFoot
        {
          OFFSET 0.73152 -45.1104 -5.12064
          CHANNELS 3 Zrotation Xrotation Yrotation
          End Site
          {
            OFFSET -1.1221 -3.69964 12.103
          }
        }
      }
    }
  }
  JOINT lButtock
  {
    OFFSET 8.77824 4.35084 1.2192
    CHANNELS 3 Zrotation Xrotation Yrotation
    JOINT lThigh
    {
      OFFSET 0 -1.70687 -2.19456
      CHANNELS 3 Zrotation Xrotation Yrotation
      JOINT lShin
      {
        OFFSET 0 -36.8199 0.73152
        CHANNELS 3 Zrotation Xrotation Yrotation
        JOINT lFoot
        {
          OFFSET -0.73152 -45.1104 -5.12064
          CHANNELS 3 Zrotation Xrotation Yrotation
          End Site
          {
            OFFSET 1.1221 -3.69964 12.103
          }
        }
      }
    }
  }
}
MOTION
Frames:	4
Frame Time:	0.03333
0.0042807310819625854 -6.77136704325676 -0.03712335601449013 -4.5568413734436035 2.1380553245544434 6.004065990447998 -2.5885274410247803 14.120464324951172 3.8314712047576904 2.7545597553253174 -9.21909236907959 1.3259891271591187 -5.336609363555908 14.997636795043945 -3.8941659927368164 8.848742485046387 -24.094221115112305 -5.852323055267334 0.021252131089568138 0.07210571318864822 0.06712769716978073 -0.10901719331741333 0.0009530112147331238 0.04800714924931526 0.12552796304225922 0.05430356785655022 0.11389310657978058 47.31709289550781 37.576438903808594 16.897066116333008 -27.44478988647461 -27.375316619873047 62.70234298706055 0.018860289826989174 -10.05813217163086 -1.3269513845443726 -0.0864129364490509 -0.1365755945444107 0.17156119644641876 0.20260415971279144 -0.11857930570840836 0.008722955361008644 0.084013432264328 0.05284160003066063 -0.045132968574762344 7.779682159423828 5.440557956695557 0.43050074577331543 -0.05811137333512306 -0.03909666836261749 -0.02243628539144993 2.9692084789276123 0.9291577339172363 0.25347012281417847 -0.05751681327819824 -0.006429003551602364 0.035445455461740494 10.334574699401855 0.7629291415214539 0.22711141407489777 -0.011726710014045238 0.1446332335472107 -0.14594994485378265 2.189380645751953 -0.748265266418457 -0.2871246635913849 -0.1439186930656433 -0.04639967530965805 0.04909071698784828 -55.48075485229492 40.05192947387695 -25.614900588989258 26.824277877807617 -25.6728572845459 -59.94224166870117 0.3528014123439789 -12.16108226776123 1.713021159172058 0.06180734559893608 -0.05628078803420067 0.02403155528008938 0.10317257791757584 -0.084323450922966 -0.04508448764681816 -0.018378999084234238 0.01566387712955475 -0.0623740628361702 -7.5871429443359375 5.421308517456055 -0.3800889253616333 0.09898793697357178 -0.07284391671419144 -0.03796418383717537 -2.7832677364349365 1.0392446517944336 -0.06100673973560333 -0.03952903300523758 0.18645967543125153 -0.018330033868551254 -10.23342514038086 0.6905262470245361 -0.10642221570014954 0.08051924407482147 -0.026379678398370743 0.06377806514501572 -2.161311626434326 -0.7381192445755005 0.23256739974021912 8.834093750920147e-05 -0.0297002624720335 0.057639364153146744 -23.568145751953125 -39.14341354370117 -19.50406265258789 -1.451086163520813 63.83954620361328 2.506192922592163 -3.6929848194122314 -10.417823791503906 -9.795209884643555 -0.06898883730173111 -0.05254017561674118 -0.043312735855579376 28.44496726989746 -37.95602798461914 21.44774627685547 1.401577353477478 64.28804016113281 -2.794057607650757 4.1206746101379395 -10.765535354614258 14.011724472045898
0.007159821689128876 -6.790217012166977 -0.07933266460895538 -4.661821365356445 2.6339759826660156 5.960853099822998 -2.53251051902771 14.090885162353516 3.9069323539733887 2.72369647026062 -9.198500633239746 1.2656434774398804 -5.325725555419922 14.99029541015625 -3.9321351051330566 8.767367362976074 -24.071849822998047 -5.769140243530273 0.029323384165763855 0.015526131726801395 0.058390457183122635 -0.05254361033439636 -0.02447507716715336 0.10457655787467957 0.13998229801654816 0.039436373859643936 0.09946531802415848 47.2884521484375 37.385292053222656 17.038978576660156 -27.436281204223633 -27.494945526123047 62.95552444458008 0.04762173816561699 -9.909258842468262 -1.2800074815750122 -0.10459935665130615 -0.16471460461616516 0.13202732801437378 0.21441376209259033 -0.08455124497413635 0.1406954973936081 0.10350827872753143 0.05983501672744751 -0.02547047659754753 7.790879726409912 5.436304092407227 0.4457293152809143 -0.041983362287282944 -0.027614153921604156 0.010621288791298866 2.9478867053985596 0.9066737294197083 0.18965454399585724 -0.003113600192591548 0.03554129600524902 0.05932952091097832 10.37013053894043 0.7338677048683167 0.14680488407611847 0.03836192935705185 0.20288817584514618 -0.14338195323944092 2.206892967224121 -0.7968361973762512 -0.34100183844566345 -0.13488160073757172 -0.0320279486477375 0.05931798741221428 -55.65849685668945 40.16902542114258 -25.29143524169922 26.769563674926758 -25.708690643310547 -60.1042594909668 0.399207204580307 -12.062588691711426 1.7145804166793823 0.03146824240684509 -0.020413605496287346 0.007806212175637484 0.10385845601558685 -0.06470950692892075 -0.08957521617412567 -0.017541158944368362 -0.004402379970997572 -0.004832840990275145 -7.662777900695801 5.3953728675842285 -0.3830334544181824 0.040108319371938705 -0.09970885515213013 -0.12137606739997864 -2.766921281814575 1.0777610540390015 -0.02583235688507557 -0.038939762860536575 0.1257617026567459 0.0012802249984815717 -10.231650352478027 0.6950973868370056 -0.06419078260660172 0.07315214723348618 0.02125883474946022 0.1448509246110916 -2.1564157009124756 -0.7367159724235535 0.24179551005363464 -0.019115351140499115 -0.044707149267196655 0.06189871206879616 -23.73467254638672 -39.26616668701172 -19.73105812072754 -1.534337043762207 64.03617858886719 2.560285806655884 -3.719247817993164 -10.310096740722656 -9.796343803405762 -0.03784232586622238 -0.0014485397841781378 -0.033709898591041565 28.330442428588867 -37.983192443847656 21.427452087402344 1.4424468278884888 64.46649169921875 -2.816387414932251 4.105174541473389 -10.83188533782959 13.996565818786621
0.021197088062763214 -7.269859313964844 -0.12447722256183624 0.9926047921180725 18.824100494384766 2.0627503395080566 -11.504739761352539 9.489461898803711 -2.3948211669921875 6.402564525604248 -7.570011615753174 -0.27655044198036194 -8.996007919311523 18.053573608398438 -13.596176147460938 14.92363166809082 -19.5899658203125 -24.37327003479004 0.08294937759637833 -0.0333474837243557 0.05550000071525574 -0.009482183493673801 -0.09457193315029144 0.1418377161026001 0.01809546910226345 -0.04735947027802467 -0.011374279856681824 65.25688934326172 33.00831985473633 -2.396080493927002 -19.733522415161133 -13.054997444152832 38.243194580078125 0.2349555343389511 3.5944910049438477 0.6137617230415344 0.015289469622075558 -0.10745969414710999 0.09417975693941116 0.26098161935806274 -0.08147258311510086 0.06444881111383438 0.026314683258533478 0.14609494805335999 -0.094840869307518 7.92307710647583 5.564011573791504 0.4373283386230469 -0.07194015383720398 -0.014845500700175762 -0.1713157594203949 2.8380982875823975 0.8541794419288635 0.2745105028152466 -0.060951270163059235 0.1258619725704193 -0.0965328961610794 10.317024230957031 0.6677258610725403 0.26534131169319153 0.11445412784814835 0.05825549364089966 -0.02624317817389965 2.3980677127838135 -0.8368035554885864 -0.17714381217956543 -0.26682737469673157 -0.2563852369785309 0.16378070414066315 -75.1656265258789 47.00919723510742 1.4389146566390991 26.91746711730957 -26.35999298095703 -60.92112350463867 0.5241160988807678 -15.230222702026367 2.134824514389038 0.14916789531707764 0.1606638878583908 -0.048846520483493805 0.07836351543664932 0.07774536311626434 0.03393130376935005 -0.03901789337396622 -0.10125488042831421 0.15395063161849976 -7.7499165534973145 5.158035755157471 -0.2541992962360382 0.18795841932296753 -0.05746443197131157 0.012843409553170204 -2.746605157852173 1.011695146560669 -0.2130700945854187 -0.16468054056167603 0.19326485693454742 0.06810524314641953 -10.239514350891113 0.48119330406188965 -0.20501601696014404 0.0783902108669281 0.3312586545944214 -0.048966698348522186 -2.3128421306610107 -0.6107237935066223 0.4246348738670349 0.14544638991355896 -0.058093342930078506 0.19488368928432465 -39.18289566040039 -58.86962127685547 -34.430782318115234 -1.9670815467834473 67.38356018066406 2.3022730350494385 1.848498821258545 -3.6889593601226807 12.877864837646484 -0.370320588350296 0.032182928174734116 -0.11194749176502228 6.993113994598389 7.350657939910889 1.2012121677398682 -0.2933714687824249 34.21422576904297 -2.50268292427063 15.452129364013672 -21.083375930786133 36.27244186401367
0.026170536875724792 -7.393639534711838 -0.18423311412334442 1.1654666662216187 18.264944076538086 3.7693734169006348 -10.814064979553223 8.471793174743652 -2.2208690643310547 6.133540630340576 -7.2710442543029785 -0.26305603981018066 -9.09654712677002 18.702322006225586 -14.77448558807373 16.24432945251465 -17.370058059692383 -26.60621452331543 0.12155651301145554 -0.1798565536737442 0.11840254813432693 -0.005793329328298569 0.09982788562774658 0.1557890921831131 -0.19599321484565735 0.08651993423700333 -0.1366094946861267 67.38965606689453 36.74760818481445 -5.189602851867676 -19.437549591064453 -12.34997272491455 36.6118278503418 0.39649540185928345 3.0705065727233887 0.5853778123855591 -0.16924266517162323 -0.30147531628608704 0.3292926847934723 0.339848130941391 -0.13497598469257355 0.2315264791250229 -0.03032863326370716 0.35570254921913147 -0.18571390211582184 7.688631057739258 5.608269214630127 0.5899431705474854 -0.03643231838941574 -0.07255180925130844 -0.2807786464691162 2.719402551651001 1.0004068613052368 0.20685404539108276 -0.036638643592596054 0.02132546156644821 0.011512179858982563 10.35598373413086 0.7416543960571289 0.2191442996263504 0.21688391268253326 0.04982781782746315 -0.06443364918231964 2.4835119247436523 -0.7040687799453735 -0.21438629925251007 -0.12717144191265106 -0.22574542462825775 0.3431254029273987 -72.6485824584961 45.348262786865234 -1.6508214473724365 26.66852378845215 -25.756622314453125 -60.106849670410156 0.35368797183036804 -11.901101112365723 1.7087080478668213 0.115664042532444 0.2680734694004059 0.11944903433322906 0.01995294727385044 -0.05372164025902748 -0.1209445521235466 -0.10013768821954727 -0.074525848031044 0.1482289582490921 -7.82784366607666 5.159960746765137 -0.3502393364906311 0.2094164490699768 -0.06817156076431274 -0.16374903917312622 -2.6198222637176514 1.082013726234436 -0.30749958753585815 -0.09475889056921005 0.15107153356075287 0.09703296422958374 -10.097099304199219 0.36158689856529236 -0.2832511365413666 -0.012494211085140705 0.3311353027820587 -0.03731376305222511 -2.2964775562286377 -0.531578540802002 0.1851094514131546 -0.00021209083206485957 -0.009211300872266293 0.15724630653858185 -36.41099166870117 -58.24802780151367 -33.604305267333984 -1.7534376382827759 69.35279083251953 2.158475399017334 2.266023874282837 -4.670763969421387 15.222414016723633 -0.2619495093822479 0.0005302431527525187 -0.22592933475971222 6.3968048095703125 6.976905345916748 0.4873654544353485 -0.25737547874450684 35.34524154663086 -2.438990831375122 17.5446834564209 -21.425355911254883 37.957916259765625
